<svg xmlns="http://www.w3.org/2000/svg" width="24.956" height="31.663" viewBox="0 0 24.956 31.663">
  <g id="pin" transform="translate(-48.1)">
    <ellipse id="Ellipse_32" data-name="Ellipse 32" cx="5" cy="4.5" rx="5" ry="4.5" transform="translate(54.511 7.335)" fill="none"/>
    <path id="Path_109" data-name="Path 109" d="M71.5,11.7a13.756,13.756,0,0,1-.989,4.507c-.181.421-.456.989-.748,1.514l-1.092.249-.181-.791c.292-.516.576-1.092.757-1.505a12.2,12.2,0,0,0,.886-3.974,10.322,10.322,0,0,0-20.644,0,12.015,12.015,0,0,0,.886,3.965,17.943,17.943,0,0,0,1.23,2.305l8.017,12.154c.155.241.206.241.37,0l1.669-2.529a5.5,5.5,0,0,0,.809,1.273L61.131,30.88a1.527,1.527,0,0,1-2.667,0L50.44,18.734a17.841,17.841,0,0,1-1.35-2.529A13.455,13.455,0,0,1,48.1,11.7a11.7,11.7,0,1,1,23.4,0Z" transform="translate(0)" fill="#fff"/>
    <path id="Path_110" data-name="Path 110" d="M118.293,64a6.193,6.193,0,1,0,6.193,6.193A6.2,6.2,0,0,0,118.293,64Zm0,11.01a4.817,4.817,0,1,1,4.817-4.817A4.82,4.82,0,0,1,118.293,75.01Z" transform="translate(-58.495 -58.495)" fill="#fff"/>
    <path id="Path_111" data-name="Path 111" d="M270.016,164.974a.405.405,0,0,1-.249.181l-3.836.877-.714.163a.4.4,0,0,1-.31-.052.406.406,0,0,1-.181-.249l-.095-.4-.955-4.155a.4.4,0,0,1,.052-.31.406.406,0,0,1,.249-.181l.335-.077a.4.4,0,0,1,.31.052.406.406,0,0,1,.181.249l.7,3.028.181.791,1.092-.249,2.727-.628a.411.411,0,0,1,.49.3l.077.335A.412.412,0,0,1,270.016,164.974Z" transform="translate(-197.023 -146.937)" fill="#fff"/>
    <g id="Group_9" data-name="Group 9" transform="translate(61.166 19.835)">
      <path id="Path_112" data-name="Path 112" d="M209.367,232.209a5.453,5.453,0,0,0-2.262-1.368,5.786,5.786,0,0,0-1.488-.241h-.12a5.432,5.432,0,0,0-3.879,1.608,5.467,5.467,0,0,0-.318,7.423q.142.168.31.335a5.486,5.486,0,1,0,7.759-7.759Zm-3.879,8.2a4.313,4.313,0,0,1-3.509-1.806,4.26,4.26,0,0,1-.68-1.471,4.207,4.207,0,0,1-.129-1.041,4.32,4.32,0,0,1,3.63-4.258,4.547,4.547,0,0,1,.688-.052,4.155,4.155,0,0,1,.929.1,4.313,4.313,0,0,1-.929,8.524Z" transform="translate(-200 -230.6)" fill="#fff"/>
      <path id="Path_113" data-name="Path 113" d="M229.129,264.651a1.873,1.873,0,0,0-1.333-.551,1.9,1.9,0,0,0-1.333.551l-.327.327-.327-.327a1.033,1.033,0,0,0-.1-.095,1.885,1.885,0,0,0-1.221-.456.651.651,0,0,0-.129.009,1.846,1.846,0,0,0-1.2.55,1.9,1.9,0,0,0-.447,1.953,1.8,1.8,0,0,0,.447.705l.439.439,2.314,2.314a.332.332,0,0,0,.232.095.312.312,0,0,0,.224-.095l2.761-2.761a1.873,1.873,0,0,0,.551-1.333A1.853,1.853,0,0,0,229.129,264.651Zm-.731,2.228-2.254,2.254-2.254-2.254a1.1,1.1,0,0,1-.327-.783,1.079,1.079,0,0,1,.327-.783,1.108,1.108,0,0,1,.783-.327,1.128,1.128,0,0,1,.628.2,1.024,1.024,0,0,1,.155.129l.49.49a.286.286,0,0,0,.4,0l.49-.49a1.111,1.111,0,0,1,1.565,0,1.1,1.1,0,0,1,.327.783A1.144,1.144,0,0,1,228.4,266.878Z" transform="translate(-220.656 -261.218)" fill="#fff"/>
    </g>
  </g>
</svg>
